<svg width="80" height="80" viewBox="0 0 80 80" fill="none" xmlns="http://www.w3.org/2000/svg">
<g opacity="0.6">
<path d="M9.10254 66.6666L40 13.3333L70.8975 66.6666H9.10254ZM14.8334 63.3332H65.1667L40 19.9999L14.8334 63.3332ZM40 58.7178C40.5813 58.7178 41.0685 58.5213 41.4616 58.1282C41.8547 57.735 42.0513 57.2478 42.0513 56.6666C42.0513 56.0854 41.8547 55.5982 41.4616 55.205C41.0685 54.8119 40.5813 54.6153 40 54.6153C39.4188 54.6153 38.9316 54.8119 38.5385 55.205C38.1453 55.5982 37.9488 56.0854 37.9488 56.6666C37.9488 57.2478 38.1453 57.735 38.5385 58.1282C38.9316 58.5213 39.4188 58.7178 40 58.7178ZM38.3334 51.282H41.6667V34.6153H38.3334V51.282Z" fill="#BCBEC0"/>
</g>
</svg>
